<?xml version="1.0" encoding="UTF-8" standalone="no"?>
<!-- Created with Inkscape (http://www.inkscape.org/) -->

<svg
   width="131.74788mm"
   height="159.34804mm"
   viewBox="0 0 131.74788 159.34804"
   version="1.1"
   id="svg1"
   xml:space="preserve"
   sodipodi:docname="EnteV4.svg"
   inkscape:version="1.3.2 (091e20e, 2023-11-25, custom)"
   inkscape:export-filename="EnteV4.png"
   inkscape:export-xdpi="96"
   inkscape:export-ydpi="96"
   xmlns:inkscape="http://www.inkscape.org/namespaces/inkscape"
   xmlns:sodipodi="http://sodipodi.sourceforge.net/DTD/sodipodi-0.dtd"
   xmlns="http://www.w3.org/2000/svg"
   xmlns:svg="http://www.w3.org/2000/svg"><sodipodi:namedview
     id="namedview1"
     pagecolor="#ffffff"
     bordercolor="#000000"
     borderopacity="0.25"
     inkscape:showpageshadow="2"
     inkscape:pageopacity="0.0"
     inkscape:pagecheckerboard="false"
     inkscape:deskcolor="#d1d1d1"
     inkscape:document-units="mm"
     inkscape:zoom="0.5"
     inkscape:cx="402"
     inkscape:cy="891"
     inkscape:window-width="3440"
     inkscape:window-height="1369"
     inkscape:window-x="1912"
     inkscape:window-y="-8"
     inkscape:window-maximized="1"
     inkscape:current-layer="g289"
     showguides="true" /><defs
     id="defs1" /><g
     id="g292"
     inkscape:label="Vorderseite"
     clip-path="none"
     style="display:inline"
     transform="translate(-84.126058,-51.195802)"><g
       inkscape:groupmode="layer"
       id="layer12"
       inkscape:label="EnteUnten"
       transform="translate(-1.5418257,-35.453874)"
       style="display:inline"><path
         id="path266"
         style="display:inline;opacity:1;fill:#ffffff;stroke:#000000;stroke-width:2;stroke-dasharray:none;stroke-opacity:1"
         inkscape:label="UmrissUntererteil"
         d="m 357.74028,152.5168 c -1.62281,5.43692 -11.82989,15.55689 -5.53711,18.40991 16.04053,7.27245 -5.57466,28.2553 1.07454,40.91434 5.66897,7.07035 -24.34224,22.99903 -54.14251,23.6625 -29.80027,0.66347 -59.38959,-13.93828 -52.34768,-24.00793 6.64919,-12.65904 -12.23387,-26.41186 1.2471,-40.74178 4.69818,-4.99405 -3.82801,-12.8867 -5.41847,-18.29126 z"
         sodipodi:nodetypes="cscscscc"
         transform="translate(-148.55772,9.4722193)" /><g
         inkscape:groupmode="layer"
         id="g273"
         inkscape:label="Details"
         style="display:inline"
         transform="translate(-148.55772,11.456594)"><path
           style="display:inline;opacity:1;fill:#000000;fill-opacity:1;stroke:none;stroke-width:2;stroke-dasharray:none;stroke-opacity:1"
           d="m 247.8906,212.05548 c 3.99923,-3.02045 4.65424,-9.95727 4.81774,-8.99729 0.88214,5.17941 -1.48762,11.02851 -1.90408,12.26666"
           id="path272"
           sodipodi:nodetypes="csc"
           inkscape:label="Zacken" /><path
           style="display:inline;opacity:1;fill:#000000;fill-opacity:1;stroke:none;stroke-width:2;stroke-dasharray:none;stroke-opacity:1"
           d="m 351.87344,212.61675 c -3.99923,-3.02045 -4.65424,-9.95727 -4.81774,-8.99729 -0.88214,5.17941 1.48762,11.02851 1.90408,12.26666"
           id="path273"
           sodipodi:nodetypes="csc"
           inkscape:label="Zacken" /></g></g><g
       inkscape:groupmode="layer"
       id="g289"
       inkscape:label="EnteOben"
       style="display:inline"
       transform="translate(-150.09955,8.6787623)"><path
         id="path5"
         style="display:inline;opacity:1;fill:#ffffff;stroke:#000000;stroke-width:2;stroke-dasharray:none;stroke-opacity:1"
         inkscape:label="UmrissObererteil"
         d="m 357.84274,112.52521 c -0.76722,14.57707 6.26542,22.12132 5.88181,29.53774 -1.53709,-1.33366 -2.04306,-1.3892 -3.58014,-2.81327 0.31934,3.25042 -0.78131,7.8302 -2.40413,13.26712 l -115.12413,-0.0542 c -1.59046,-5.40457 -2.66954,-9.96279 -2.3502,-13.2132 -1.53708,1.42407 -2.04305,1.47961 -3.58014,2.81327 -0.38361,-7.41642 6.64903,-14.96067 5.88181,-29.53774 0.38361,-18.157406 20.83964,-55.150126 57.37871,-55.149976 36.53907,1.5e-4 57.5128,36.99287 57.89641,55.150276 z"
         sodipodi:nodetypes="cccccccccc" /><g
         id="g271"
         inkscape:label="Schnabel"
         style="display:inline"><path
           id="path267"
           style="display:inline;opacity:1;fill:#fab812;fill-opacity:1;stroke:#000000;stroke-width:2;stroke-dasharray:none;stroke-opacity:1"
           d="m 263.39271,171.25156 c 11.63898,0.26452 17.85133,-3.96578 36.64195,-3.96578 18.79062,0 25.00297,4.23031 36.64195,3.96578 18.76823,0.66086 -10.55549,-20.12666 -36.50992,-20.06234 -25.95443,0.0643 -56.01665,20.7399 -36.77398,20.06234 z"
           sodipodi:nodetypes="czczc"
           inkscape:label="Schnabelunterseite" /><path
           id="path268"
           style="display:inline;opacity:1;fill:#fab812;fill-opacity:1;stroke:#000000;stroke-width:2;stroke-dasharray:none;stroke-opacity:1"
           inkscape:label="Schnabel"
           d="m 287.41553,115.78105 c -2.82582,-0.0159 -5.13326,2.90046 -5.10046,7.51633 0.86282,11.73436 -11.04417,24.15892 -35.80712,27.6102 -11.73436,1.63936 -22.00176,21.05292 10.95799,18.20561 12.55514,-1.80587 27.42438,-14.57829 42.63361,-14.57829 15.20922,0 30.07847,12.77242 42.63361,14.57829 32.95974,2.84731 22.69234,-16.56625 10.95798,-18.20561 -24.76294,-3.45128 -36.66993,-15.87584 -35.80711,-27.6102 0.0477,-6.714 -4.85605,-9.83214 -9.10436,-5.56141 -3.00934,3.02521 -5.97388,5.01052 -8.68009,5.02656 -2.46893,0.006 -5.67074,-2.00135 -8.68009,-5.02656 -1.32759,-1.33461 -2.71942,-1.94768 -4.00389,-1.95492 z"
           sodipodi:nodetypes="scccccccscsss" /><path
           style="display:inline;opacity:1;fill:#000000;fill-opacity:1;stroke:none;stroke-width:2;stroke-dasharray:none;stroke-opacity:1"
           d="m 290.31405,129.08359 c 3.57188,-4.49791 5.49012,2.21589 4.39871,5.06016 -1.91823,5.29167 -5.9862,6.91224 -6.18464,1.78594 -0.0661,-3.10885 0.76067,-5.49011 1.78593,-6.8461 z"
           id="path269"
           sodipodi:nodetypes="cccc"
           inkscape:label="SchnabelLochLinks" /><path
           style="display:inline;opacity:1;fill:#000000;fill-opacity:1;stroke:none;stroke-width:2;stroke-dasharray:none;stroke-opacity:1"
           d="m 309.96349,129.08359 c -3.57188,-4.49791 -5.49012,2.21589 -4.39871,5.06016 1.91823,5.29167 5.9862,6.91224 6.18464,1.78594 0.0661,-3.10885 -0.76067,-5.49011 -1.78593,-6.8461 z"
           id="path270"
           sodipodi:nodetypes="cccc"
           inkscape:label="SchnabelLochRechts" /></g><g
         inkscape:groupmode="layer"
         id="g276"
         inkscape:label="Augenringe Links"><path
           style="opacity:1;fill:#000000;fill-opacity:1;stroke:none;stroke-width:2;stroke-dasharray:none;stroke-opacity:1"
           d="m 260.16176,89.239249 c 12.73283,-1.209994 21.50048,12.601771 20.33118,24.856081 3.27405,-14.265512 -5.46796,-23.440394 -10.06563,-25.574677 3.0214,1.891354 7.19115,7.023945 7.77581,10.110908 -2.73618,-4.139337 -10.13686,-12.549433 -18.04136,-9.392312 z"
           id="path274"
           sodipodi:nodetypes="ccccc"
           inkscape:label="Oben" /><path
           style="opacity:1;fill:#000000;fill-opacity:1;stroke:none;stroke-width:2;stroke-dasharray:none;stroke-opacity:1"
           d="m 248.35972,133.38052 c 3.80339,2.9931 7.25009,3.36476 9.35022,3.59627 3.12539,0.3142 6.93289,-0.27342 11.46388,-3.06808 -4.20026,3.77031 -7.85609,4.13249 -11.72562,4.06634 -4.13412,-0.0827 -8.19551,-2.99049 -9.08848,-4.59453 z"
           id="path275"
           sodipodi:nodetypes="ccccc"
           inkscape:label="Unten" /><path
           id="path276"
           style="opacity:1;fill:#000000;fill-opacity:1;stroke:none;stroke-width:2;stroke-dasharray:none;stroke-opacity:1"
           d="m 260.09368,92.419165 c -1.60551,-0.01709 -3.29902,0.235645 -5.03535,0.879533 -2.77812,0.992187 -11.64167,5.920059 -14.51901,16.536462 1.35599,3.37342 1.65366,15.54427 7.14375,20.33984 4.82865,4.3987 9.19428,6.11848 17.23099,2.64583 8.23515,-4.00181 11.84011,-11.50938 12.43542,-19.47994 0.13229,-2.77813 0.3638,-10.31876 -5.49011,-15.908078 -1.4211,-1.446938 -6.0317,-4.952609 -11.76569,-5.013647 z m -0.0605,1.182357 c 5.41351,0.0045 9.41542,3.41933 10.7549,4.78317 5.51771,5.268308 6.62249,12.441998 6.4978,15.060578 -1.48985,7.47782 -5.18275,13.72979 -12.71344,18.26245 -7.13872,2.80562 -11.69005,1.65217 -16.24138,-2.4939 -5.1748,-4.52015 -5.45533,-15.99227 -6.73344,-19.17196 2.71209,-10.00669 11.06637,-14.651438 13.68495,-15.586644 1.63661,-0.606908 3.23483,-0.854966 4.75061,-0.853694 z"
           sodipodi:nodetypes="sccccccssccccccs"
           inkscape:label="Innen" /></g><g
         inkscape:groupmode="layer"
         id="g279"
         inkscape:label="Augenringe Rechts"
         transform="matrix(-1,0,0,1,600.06579,0)"
         style="display:inline"><path
           style="opacity:1;fill:#000000;fill-opacity:1;stroke:none;stroke-width:2;stroke-dasharray:none;stroke-opacity:1"
           d="m 260.16176,89.239249 c 12.73283,-1.209994 21.50048,12.601771 20.33118,24.856081 3.27405,-14.265512 -5.46796,-23.440394 -10.06563,-25.574677 3.0214,1.891354 7.19115,7.023945 7.77581,10.110908 -2.73618,-4.139337 -10.13686,-12.549433 -18.04136,-9.392312 z"
           id="path277"
           sodipodi:nodetypes="ccccc"
           inkscape:label="Oben" /><path
           style="opacity:1;fill:#000000;fill-opacity:1;stroke:none;stroke-width:2;stroke-dasharray:none;stroke-opacity:1"
           d="m 248.35972,133.38052 c 3.80339,2.9931 7.25009,3.36476 9.35022,3.59627 3.12539,0.3142 6.93289,-0.27342 11.46388,-3.06808 -4.20026,3.77031 -7.85609,4.13249 -11.72562,4.06634 -4.13412,-0.0827 -8.19551,-2.99049 -9.08848,-4.59453 z"
           id="path278"
           sodipodi:nodetypes="ccccc"
           inkscape:label="Unten" /><path
           id="path279"
           style="opacity:1;fill:#000000;fill-opacity:1;stroke:none;stroke-width:2;stroke-dasharray:none;stroke-opacity:1"
           d="m 260.09368,92.419165 c -1.60551,-0.01709 -3.29902,0.235645 -5.03535,0.879533 -2.77812,0.992187 -11.64167,5.920059 -14.51901,16.536462 1.35599,3.37342 1.65366,15.54427 7.14375,20.33984 4.82865,4.3987 9.19428,6.11848 17.23099,2.64583 8.23515,-4.00181 11.84011,-11.50938 12.43542,-19.47994 0.13229,-2.77813 0.3638,-10.31876 -5.49011,-15.908078 -1.4211,-1.446938 -6.0317,-4.952609 -11.76569,-5.013647 z m -0.0605,1.182357 c 5.41351,0.0045 9.41542,3.41933 10.7549,4.78317 5.51771,5.268308 6.62249,12.441998 6.4978,15.060578 -1.48985,7.47782 -5.18275,13.72979 -12.71344,18.26245 -7.13872,2.80562 -11.69005,1.65217 -16.24138,-2.4939 -5.1748,-4.52015 -5.45533,-15.99227 -6.73344,-19.17196 2.71209,-10.00669 11.06637,-14.651438 13.68495,-15.586644 1.63661,-0.606908 3.23483,-0.854966 4.75061,-0.853694 z"
           sodipodi:nodetypes="sccccccssccccccs"
           inkscape:label="Innen" /></g><g
         id="g283"
         inkscape:label="Auge Links"
         style="display:inline"><path
           style="color:#000000;display:inline;opacity:1;fill:#ffffff;fill-opacity:1;stroke-width:0.920171;-inkscape-stroke:none"
           d="m 257.83454,95.128498 c -4.62898,-2.44e-4 -9.07666,1.935561 -12.50078,4.927422 -4.15203,3.62787 -5.58144,7.4843 -5.58133,11.94984 -1.1e-4,4.46555 2.68966,8.59205 5.98644,11.72479 3.29624,3.13218 7.46668,5.24275 12.09567,5.24251 4.62858,-2.5e-4 8.9457,-2.18287 12.24152,-5.31501 3.29638,-3.13269 4.96387,-7.27115 4.96377,-11.73647 1e-4,-4.46532 -1.75321,-8.56071 -5.04959,-11.6934 -3.29582,-3.132152 -7.52711,-5.099437 -12.1557,-5.099682 z"
           id="path280"
           sodipodi:nodetypes="sscssscss"
           inkscape:label="Augeweiß" /><path
           style="color:#000000;display:inline;opacity:1;fill:#000000;fill-opacity:1;-inkscape-stroke:none"
           d="m 257.67773,93.671875 c -5.0337,-2.66e-4 -9.87025,2.102169 -13.59375,5.351562 -4.51505,3.940153 -6.06944,8.128533 -6.06932,12.978453 -1.2e-4,4.84993 2.92482,9.33163 6.50985,12.73403 3.58443,3.40179 8.11951,5.69403 13.15322,5.69377 5.03327,-2.7e-4 9.72784,-2.37076 13.31182,-5.77251 3.58459,-3.40235 5.39787,-7.89703 5.39776,-12.74672 1.1e-4,-4.84968 -1.90649,-9.29759 -5.49108,-12.699934 -3.58398,-3.401761 -8.18522,-5.538385 -13.2185,-5.538651 z m 0,1.755564 c 4.51306,2.38e-4 9.02981,2.020261 12.2168,5.045221 3.18638,3.02437 4.906,7.25846 4.9059,11.52923 10e-5,4.27078 -1.91531,8.60263 -5.10169,11.62702 -3.18699,3.02495 -7.50796,4.80054 -12.02101,4.80078 -4.51326,2.3e-4 -8.93344,-1.97134 -12.12085,-4.99633 -3.18677,-3.02443 -5.54232,-7.35583 -5.54222,-11.62702 -1e-4,-4.27118 1.96386,-8.5537 5.15063,-11.57812 3.18741,-3.025006 7.99918,-4.801019 12.51244,-4.800781 z"
           id="path281"
           transform="matrix(0.95554281,0,0,0.95673468,11.629576,4.8479088)"
           sodipodi:nodetypes="sscssscsssscssscss"
           inkscape:label="Augenumrandung" /><path
           id="path282"
           style="opacity:1;fill:#000000;stroke-width:1.92589"
           d="m 257.78586,109.9013 c 0,2.57546 -1.76729,4.49792 -4.15542,4.49792 -2.38813,0 -4.07876,-1.74056 -4.07876,-4.31602 0,-2.57546 1.82864,-4.54753 4.21677,-4.54752 2.38812,0 4.01741,1.79016 4.01741,4.36562 z"
           sodipodi:nodetypes="sssss"
           inkscape:label="Pupille" /><path
           id="path283"
           style="opacity:1;fill:#ffffff;stroke-width:0.294766"
           d="m 254.13024,109.79195 c 0,0.39419 -0.2705,0.68843 -0.636,0.68843 -0.36552,0 -0.62428,-0.2664 -0.62428,-0.66058 0,-0.39419 0.27988,-0.69602 0.6454,-0.69602 0.36552,0 0.61488,0.27399 0.61488,0.66817 z"
           sodipodi:nodetypes="sssss"
           inkscape:label="Augenweiß" /></g><g
         id="g287"
         inkscape:label="Auge Rechts"
         transform="matrix(-1,0,0,1,600.29178,0)"><path
           style="color:#000000;display:inline;opacity:1;fill:#ffffff;fill-opacity:1;stroke-width:0.920171;-inkscape-stroke:none"
           d="m 257.83454,95.128498 c -4.62898,-2.44e-4 -9.07666,1.935561 -12.50078,4.927422 -4.15203,3.62787 -5.58144,7.4843 -5.58133,11.94984 -1.1e-4,4.46555 2.68966,8.59205 5.98644,11.72479 3.29624,3.13218 7.46668,5.24275 12.09567,5.24251 4.62858,-2.5e-4 8.9457,-2.18287 12.24152,-5.31501 3.29638,-3.13269 4.96387,-7.27115 4.96377,-11.73647 1e-4,-4.46532 -1.75321,-8.56071 -5.04959,-11.6934 -3.29582,-3.132152 -7.52711,-5.099437 -12.1557,-5.099682 z"
           id="path284"
           sodipodi:nodetypes="sscssscss"
           inkscape:label="Augeweiß" /><path
           style="color:#000000;display:inline;opacity:1;fill:#000000;fill-opacity:1;-inkscape-stroke:none"
           d="m 257.67773,93.671875 c -5.0337,-2.66e-4 -9.87025,2.102169 -13.59375,5.351562 -4.51505,3.940153 -6.06944,8.128533 -6.06932,12.978453 -1.2e-4,4.84993 2.92482,9.33163 6.50985,12.73403 3.58443,3.40179 8.11951,5.69403 13.15322,5.69377 5.03327,-2.7e-4 9.72784,-2.37076 13.31182,-5.77251 3.58459,-3.40235 5.39787,-7.89703 5.39776,-12.74672 1.1e-4,-4.84968 -1.90649,-9.29759 -5.49108,-12.699934 -3.58398,-3.401761 -8.18522,-5.538385 -13.2185,-5.538651 z m 0,1.755564 c 4.51306,2.38e-4 9.02981,2.020261 12.2168,5.045221 3.18638,3.02437 4.906,7.25846 4.9059,11.52923 10e-5,4.27078 -1.91531,8.60263 -5.10169,11.62702 -3.18699,3.02495 -7.50796,4.80054 -12.02101,4.80078 -4.51326,2.3e-4 -8.93344,-1.97134 -12.12085,-4.99633 -3.18677,-3.02443 -5.54232,-7.35583 -5.54222,-11.62702 -1e-4,-4.27118 1.96386,-8.5537 5.15063,-11.57812 3.18741,-3.025006 7.99918,-4.801019 12.51244,-4.800781 z"
           id="path285"
           transform="matrix(0.95554281,0,0,0.95673468,11.629576,4.8479088)"
           sodipodi:nodetypes="sscssscsssscssscss"
           inkscape:label="Augenumrandung" /><path
           id="path286"
           style="opacity:1;fill:#000000;stroke-width:1.92589"
           d="m 257.78586,109.9013 c 0,2.57546 -1.76729,4.49792 -4.15542,4.49792 -2.38813,0 -4.07876,-1.74056 -4.07876,-4.31602 0,-2.57546 1.82864,-4.54753 4.21677,-4.54752 2.38812,0 4.01741,1.79016 4.01741,4.36562 z"
           sodipodi:nodetypes="sssss"
           inkscape:label="Pupille" /><path
           id="path287"
           style="opacity:1;fill:#ffffff;stroke-width:0.294766"
           d="m 254.13024,109.79195 c 0,0.39419 -0.2705,0.68843 -0.636,0.68843 -0.36552,0 -0.62428,-0.2664 -0.62428,-0.66058 0,-0.39419 0.27988,-0.69602 0.6454,-0.69602 0.36552,0 0.61488,0.27399 0.61488,0.66817 z"
           sodipodi:nodetypes="sssss"
           inkscape:label="Augenweiß" /></g><g
         inkscape:groupmode="layer"
         id="g288"
         inkscape:label="Haare"
         style="display:inline"><path
           id="path290"
           style="display:inline;opacity:1;fill:#c0c0c0;fill-opacity:1;stroke:none;stroke-width:2"
           inkscape:label="HaareKontur"
           d="m 313.13663,42.517596 c -6.23683,0.05365 -11.94808,4.041731 -14.457,7.886857 -4.16128,-6.010886 -17.88477,-9.334781 -23.20117,-0.380855 l -0.56069,0.943095 1.08004,-0.195337 c 2.04507,-0.37169 4.56871,-0.189136 4.56871,-0.189136 1.66603,0.12456 3.47428,0.494582 4.96869,1.373043 0.49252,0.289521 0.93905,0.648116 1.3441,1.058333 a 89.327625,89.327625 0 0 1 3.91966,-0.3545 c -2.21912,-2.42912 -4.83003,-4.055639 -6.72465,-4.78007 3.45757,-0.629929 8.75091,0.414527 11.93622,4.406966 a 89.327625,89.327625 0 0 1 4.08916,-0.292489 89.327625,89.327625 0 0 1 1.34203,0.03307 c 3.01174,-4.298912 7.73687,-6.320533 11.45874,-6.497277 -2.88697,1.495755 -4.61978,4.275959 -5.55832,6.783048 a 89.327625,89.327625 0 0 1 21.16305,4.345471 c -3.19624,-4.120382 -9.6411,-7.585997 -17.56172,-4.35529 0.49527,-2.129717 3.72769,-5.31112 9.96683,-6.583577 l 1.2206,-0.250114 -1.05472,-0.664042 c -2.6114,-1.645725 -5.32107,-2.309723 -7.93956,-2.287199 z m -27.41538,10.453626 c -2.66635,-0.09108 -6.25083,0.700487 -9.65988,2.395202 a 89.327625,89.327625 0 0 1 10.63191,-2.31252 c -0.30915,-0.04054 -0.63043,-0.07101 -0.97203,-0.08268 z" /><path
           style="display:inline;opacity:1;fill:#ffffff;fill-opacity:1;stroke:none;stroke-width:1.84523;stroke-opacity:1"
           d="m 293.97046,66.591331 c -6.34345,-5.566703 -12.08276,-4.269903 -14.80139,1.555716 -1.20827,-3.970051 3.31303,-7.148315 4.39185,-7.579843 -3.58167,0.215764 -11.06576,2.308251 -14.77717,5.109559 2.88121,-9.323489 15.99519,-13.412138 20.22415,-11.427112 -2.84807,-4.962564 -9.75529,-5.18641 -9.75529,-5.18641 7.6322,-4.262919 14.4904,-0.594936 19.37835,3.564983 4.11817,-4.397679 10.16149,-10.593857 17.55815,-7.383579 -5.06251,2.366721 -7.31313,6.502427 -7.378,9.214091 8.81373,-2.030676 13.7412,-1.46788 16.55199,2.745615 -4.44394,-1.039506 -6.87845,-1.671617 -10.66618,1.478572 0.22507,3.020359 -2.55793,4.762292 4.07163,8.934251 -1.70064,0.07586 -5.37073,-0.902598 -8.05096,1.536891 l -2.93463,0.205719 -8.80678,-0.395052 c -5.8784,-7.715382 -13.25247,-13.700604 -17.77893,-3.754287 4.57419,-4.7468 8.84631,-2.675471 12.77321,1.380886 z"
           id="path291"
           inkscape:label="HaareHintergrund"
           sodipodi:nodetypes="ccccccccccccccccc"
           sodipodi:insensitive="true" /><path
           style="display:inline;opacity:1;fill:#000000;fill-opacity:1;stroke-width:2"
           d="m 293.63566,67.35192 c -6.87551,-6.03361 -13.0962,-1.637026 -16.04285,4.677217 -1.30962,-4.303039 1.30962,-9.167345 2.47893,-9.635067 -3.88209,0.233861 -10.52374,3.414368 -13.93811,6.501331 1.44994,-12.488169 17.53957,-17.07184 22.12324,-14.92032 -3.08696,-5.378799 -12.34785,-3.695003 -12.34785,-3.695003 5.33203,-8.980257 19.45722,-5.004621 22.77804,1.075761 2.99342,-5.425571 13.14298,-11.786587 22.12324,-6.127155 -7.10937,1.449937 -10.66405,5.425572 -10.43019,7.857725 10.00924,-4.583672 17.63129,1.90697 19.41045,6.828738 -4.00555,-2.343379 -9.83806,-4.042412 -13.94348,-0.628001 0.24395,3.273692 -1.5051,4.350606 5.68051,8.872488 -1.84328,0.08222 -6.8351,-0.674132 -9.74013,1.969969 1.50384,-1.173161 3.29129,-3.188765 6.51857,-2.674271 -1.44994,-0.467722 -4.8213,-2.579679 -4.17944,-6.313064 -2.83144,1.032524 -5.4693,9.956667 -5.5706,10.325603 0.32741,-6.735192 3.69501,-18.100829 14.87356,-15.715448 -6.08038,-3.788546 -15.9961,-3.133736 -19.50401,8.044812 -0.0935,-1.449937 1.35639,-5.986837 2.99342,-7.436774 0.14032,-2.712786 2.19828,-9.775382 8.37221,-11.178547 -7.15614,-1.403165 -21.37487,5.659431 -16.22993,24.742475 -3.27405,-4.349812 -3.60144,-12.862346 -1.40315,-16.042853 -3.46114,-6.641648 -11.78662,-7.670636 -15.52839,-5.940066 1.87089,-0.140317 9.21413,3.554686 11.73983,10.664055 -2.29184,-3.274052 -15.9961,-6.641647 -23.80705,5.846522 8.27867,-5.238483 11.03824,-4.49013 14.26552,-4.396586 2.38538,-0.327405 6.26747,-0.982214 10.2431,3.975636 -4.06918,-3.741773 -11.22532,-5.986837 -14.78,1.824115 4.95785,-5.144938 9.58829,-2.899876 13.84456,1.496708 z"
           id="path292"
           inkscape:label="HaareKontur"
           sodipodi:nodetypes="ccccccccccccccccccccccccccccc" /></g></g></g></svg>
